<?xml version="1.0" standalone="no"?>
<!DOCTYPE svg PUBLIC "-//W3C//DTD SVG 20010904//EN"
 "http://www.w3.org/TR/2001/REC-SVG-20010904/DTD/svg10.dtd">
<svg version="1.0" xmlns="http://www.w3.org/2000/svg"
 width="452.000000pt" height="452.000000pt" viewBox="0 0 452.000000 452.000000"
 preserveAspectRatio="xMidYMid meet">

<g transform="translate(0.000000,452.000000) scale(0.100000,-0.100000)"
fill="#000000" stroke="none">
<path d="M2095 3910 c-569 -65 -1064 -406 -1312 -905 -204 -410 -235 -837 -93
-1266 165 -497 552 -884 1049 -1049 315 -105 615 -115 936 -33 540 139 978
549 1155 1082 117 351 117 691 0 1042 -194 587 -698 1015 -1309 1115 -112 18
-325 25 -426 14z m397 -316 c486 -79 905 -443 1057 -917 45 -142 63 -261 63
-417 0 -366 -134 -693 -390 -953 -257 -260 -593 -400 -962 -399 -361 0 -684
130 -942 380 -268 260 -410 596 -410 972 0 376 142 712 410 972 315 305 735
434 1174 362z"/>
<path d="M2947 2696 c-137 -51 -201 -169 -163 -299 25 -85 76 -132 219 -201
94 -44 119 -61 133 -87 20 -40 14 -104 -13 -131 -48 -47 -152 -26 -178 36 -8
20 -15 47 -15 61 0 25 0 25 -91 25 l-91 0 7 -47 c21 -144 122 -230 281 -241
142 -9 246 50 278 159 20 66 20 102 1 165 -24 83 -72 127 -200 189 -118 56
-165 97 -165 141 0 123 177 134 196 12 l7 -38 88 0 c102 0 100 -2 73 89 -18
61 -70 123 -128 153 -52 27 -183 35 -239 14z"/>
<path d="M1356 2653 c-43 -134 -256 -821 -256 -827 0 -3 42 -6 93 -6 l94 0 12
53 c6 30 16 70 22 91 l10 37 122 -3 121 -3 13 -45 c6 -25 17 -64 23 -87 l11
-43 95 0 c72 0 95 3 91 13 -2 6 -64 204 -138 439 l-134 428 -82 0 -81 0 -16
-47z m169 -473 l7 -30 -82 0 c-73 0 -81 2 -76 18 3 9 15 53 26 97 12 44 28
105 37 135 l16 55 33 -123 c18 -67 35 -136 39 -152z"/>
<path d="M2010 2261 l0 -441 173 0 c210 0 261 12 323 74 48 48 64 93 64 185 0
81 -28 145 -77 174 l-35 20 32 25 c86 67 95 231 17 319 -59 67 -97 77 -309 81
l-188 4 0 -441z m345 264 c35 -34 36 -121 1 -162 -21 -24 -32 -28 -95 -31
l-71 -4 0 111 0 111 70 0 c62 0 74 -3 95 -25z m13 -350 c42 -53 36 -157 -11
-190 -14 -10 -46 -15 -94 -15 l-73 0 0 115 0 115 79 0 c73 0 81 -2 99 -25z"/>
<path d="M319 3311 c-51 -16 -79 -44 -110 -109 -81 -173 -151 -404 -186 -617
-25 -155 -25 -497 1 -650 37 -224 114 -477 194 -635 46 -91 122 -120 209 -81
47 22 83 78 83 131 0 16 -20 76 -44 133 -219 514 -219 1040 0 1554 24 57 44
114 44 128 0 93 -105 173 -191 146z"/>
<path d="M4114 3309 c-42 -12 -91 -70 -100 -116 -8 -40 -8 -40 64 -218 195
-482 186 -999 -24 -1492 -24 -57 -44 -117 -44 -133 0 -50 35 -107 80 -130 83
-43 166 -11 212 80 131 260 218 642 218 960 0 315 -77 663 -209 942 -44 93
-115 132 -197 107z"/>
</g>
</svg>
