<?xml version="1.0" standalone="no"?>
<!DOCTYPE svg PUBLIC "-//W3C//DTD SVG 20010904//EN"
 "http://www.w3.org/TR/2001/REC-SVG-20010904/DTD/svg10.dtd">
<svg version="1.0" xmlns="http://www.w3.org/2000/svg"
 width="512.000000pt" height="512.000000pt" viewBox="0 0 512.000000 512.000000"
 preserveAspectRatio="xMidYMid meet">

<g transform="translate(0.000000,512.000000) scale(0.100000,-0.100000)"
fill="#000000" stroke="none">
<path d="M2380 5114 c-19 -2 -78 -9 -130 -14 -330 -36 -695 -160 -990 -336
-375 -224 -680 -529 -904 -904 -175 -292 -291 -632 -338 -990 -16 -123 -16
-497 0 -620 82 -623 356 -1150 820 -1581 256 -239 575 -425 922 -539 274 -91
491 -124 800 -124 228 0 329 9 530 50 689 141 1304 583 1674 1204 175 292 291
632 338 990 16 123 16 497 0 620 -47 358 -163 698 -338 990 -224 375 -529 680
-904 904 -289 173 -634 291 -980 336 -88 12 -438 21 -500 14z m480 -350 c476
-61 921 -283 1271 -633 351 -351 567 -785 635 -1276 21 -158 21 -432 0 -590
-68 -491 -284 -925 -635 -1276 -351 -351 -785 -567 -1276 -635 -158 -21 -432
-21 -590 0 -491 68 -925 284 -1276 635 -351 351 -567 785 -635 1276 -21 158
-21 432 0 590 68 491 284 925 635 1276 243 242 521 419 831 527 343 119 674
153 1040 106z"/>
<path d="M1180 2560 l0 -1240 165 0 165 0 0 535 0 535 440 0 440 0 0 -535 0
-535 170 0 170 0 0 535 0 535 605 0 605 0 0 705 0 705 -165 0 -165 0 0 -535 0
-535 -440 0 -440 0 0 535 0 535 -170 0 -170 0 0 -535 0 -535 -440 0 -440 0 0
535 0 535 -165 0 -165 0 0 -1240z"/>
<path d="M3517 2013 c-4 -3 -7 -150 -7 -325 l0 -318 90 0 90 0 0 100 0 100 35
0 c32 0 37 -5 95 -100 l62 -100 99 0 c116 0 114 -17 18 138 l-58 95 26 31 c14
17 34 49 44 71 53 117 -22 273 -147 304 -46 12 -336 15 -347 4z m317 -175 c22
-31 20 -74 -4 -98 -17 -17 -31 -20 -78 -18 l-57 3 -3 68 -3 67 65 0 c56 0 67
-3 80 -22z"/>
</g>
</svg>
